<svg width="52" height="40" viewBox="0 0 52 40" fill="none" xmlns="http://www.w3.org/2000/svg">
<path d="M15.785 36.7446C11.273 41.3226 3.6313 41.3044 1.4972 35.2029C1.07937 34.0084 0.7453 32.7801 0.499594 31.5268C-0.503621 26.4094 0.0112654 21.1053 1.97915 16.2849C3.94702 11.4646 7.2795 7.34456 11.5552 4.44587C15.8309 1.54717 20.8578 -2.23498e-07 26.0001 0C31.1424 2.23498e-07 36.1692 1.54717 40.4448 4.44587C44.7206 7.34456 48.053 11.4646 50.0209 16.285C51.9888 21.1053 52.5036 26.4094 51.5004 31.5268C51.2548 32.7801 50.9207 34.0084 50.5027 35.2029C48.3686 41.3044 40.7271 41.3226 36.215 36.7446L29.25 29.6777C28.5846 29.0026 28.6533 27.8891 28.8369 26.9527C28.9484 26.3835 28.8912 25.7934 28.6722 25.2571C28.4533 24.7209 28.0826 24.2625 27.607 23.9401C27.1313 23.6177 26.5721 23.4455 26.0001 23.4455C25.428 23.4455 24.8688 23.6177 24.3931 23.9401C23.9173 24.2625 23.5467 24.7209 23.3278 25.2571C23.1088 25.7934 23.0515 26.3835 23.1632 26.9527C23.3468 27.8891 23.4154 29.0026 22.75 29.6777L15.785 36.7446Z" fill="#5C0202"/>
</svg>
